<?xml version="1.0" encoding="UTF-8" standalone="no"?>
<svg width="2560px" height="103px" viewBox="0 0 2560 103" version="1.1" xmlns="http://www.w3.org/2000/svg" xmlns:xlink="http://www.w3.org/1999/xlink">
    <!-- Generator: Sketch 3.7.1 (28215) - http://www.bohemiancoding.com/sketch -->
    <title>Nav</title>
    <desc>Created with Sketch.</desc>
    <defs></defs>
    <g id="Page-1" stroke="none" stroke-width="1" fill="none" fill-rule="evenodd">
        <g id="Nav">
            <rect id="Rectangle-10" fill="#2CACE3" x="0" y="0" width="2560" height="103"></rect>
            <g id="Logo" transform="translate(710.000000, 33.000000)">
                <path d="M255.919577,35.0241411 C244.757832,35.0241411 237.193237,27.5758201 237.193237,17.5355444 C237.193237,7.45050466 244.757832,0 255.919577,0 C259.891431,0 263.533766,1.15731755 266.61625,2.96098602 L264.187292,9.62429639 C261.664658,8.23551533 258.815812,7.35770089 256.013253,7.35770089 C249.615748,7.35770089 245.646099,11.2434491 245.646099,17.5355444 C245.646099,23.8276398 249.615748,27.7144798 256.013253,27.7144798 C258.815812,27.7144798 261.991972,26.7886258 264.559791,25.2164208 L266.942462,31.8775476 C263.953654,33.8209676 259.841838,35.0241411 255.919577,35.0241411" id="Fill-10" fill="#FFFFFF"></path>
                <polyline id="Fill-2" fill="#BEE7FA" points="215.220204 14.1149068 202.074736 14.1149068 202.074736 1.09180901 194.134335 1.09180901 194.134335 14.1149068 180.987765 14.1149068 180.987765 21.9824825 194.134335 21.9824825 194.134335 35.0055804 202.074736 35.0055804 202.074736 21.9824825 215.220204 21.9824825 215.220204 14.1149068"></polyline>
                <polygon id="Fill-1" fill="#BEE7FA" points="222.866352 1.09180901 230.807854 1.09180901 230.807854 35.0055804 222.866352 35.0055804"></polygon>
                <polyline id="Fill-9" fill="#FFFFFF" points="153.436064 35.0055804 153.436064 1.09180901 175.108232 1.09180901 175.108232 8.30975835 161.375362 8.30975835 161.375362 14.3714819 173.892651 14.3714819 173.892651 21.2182162 161.375362 21.2182162 161.375362 27.8345788 175.108232 27.8345788 175.108232 35.0055804 153.436064 35.0055804"></polyline>
                <polyline id="Fill-8" fill="#FFFFFF" points="143.444715 35.2086568 122.801878 16.8411539 122.801878 34.5612141 114.863682 34.5612141 114.863682 0.184515722 115.9393 0 136.30111 18.2288432 136.30111 0.647442741 144.239306 0.647442741 144.239306 35.0699971 143.444715 35.2086568"></polyline>
                <path d="M106.152936,15.4065169 L106.152936,31.6002281 C102.370638,33.7740198 98.3535999,35.0241411 93.1694717,35.0241411 C83.1285296,35.0241411 75.1892312,27.9000873 75.1892312,17.5355444 C75.1892312,7.12405377 83.2200012,0 93.5882576,0 C98.0725725,0 101.667519,1.15731755 105.078419,2.91513005 L101.762296,9.25308133 C99.3322363,8.00514363 96.7170288,7.35770089 94.1029233,7.35770089 C87.2844282,7.35770089 83.6420933,11.5655328 83.6420933,17.5355444 C83.6420933,24.0132473 88.0305283,28.0365635 93.6356465,28.0365635 C96.1582803,28.0365635 97.4179441,27.7603358 98.679812,27.1118012 L98.679812,22.1156832 L91.81503,22.1156832 L91.81503,15.4065169 L106.152936,15.4065169" id="Fill-7" fill="#FFFFFF"></path>
                <path d="M57.6035311,14.9719769 L54.1948346,23.1157803 L60.9659408,23.1157803 L57.6035311,14.9719769 L57.6035311,14.9719769 Z M66.0563932,35.2828998 L63.4874725,29.1305561 L51.6722008,29.1305561 L49.1032801,35.2828998 L41.0251212,35.2828998 L57.1373563,1.09180901 L58.2107706,1.09180901 L74.3230057,35.2828998 L66.0563932,35.2828998 L66.0563932,35.2828998 Z" id="Fill-6" fill="#FFFFFF"></path>
                <polyline id="Fill-4" fill="#FFFFFF" points="28.5508128 34.2369468 28.1320269 17.5814004 18.6509353 29.4733841 17.8089553 29.4733841 8.23639212 17.5814004 7.90797584 34.2369468 0.248602788 34.2369468 1.83668287 0.0917119565 2.9123013 0 18.4172969 19.3861607 33.5486914 0 34.6232078 0.0917119565 36.2553706 34.2369468 28.5508128 34.2369468"></polyline>
            </g>
            <text id="Solutions" font-family="OpenSans, Open Sans" font-size="16" font-weight="normal" fill="#FFFFFF">
                <tspan x="1091.4375" y="55">Solutions</tspan>
            </text>
            <text id="Platform" font-family="OpenSans, Open Sans" font-size="16" font-weight="normal" fill="#FFFFFF">
                <tspan x="1196.5" y="55">Platform</tspan>
            </text>
            <text id="Clients" font-family="OpenSans, Open Sans" font-size="16" font-weight="normal" fill="#FFFFFF">
                <tspan x="1297" y="55">Clients</tspan>
            </text>
            <text id="Prtners" font-family="OpenSans, Open Sans" font-size="16" font-weight="normal" fill="#FFFFFF">
                <tspan x="1385" y="55">Prtners</tspan>
            </text>
            <text id="Resources" font-family="OpenSans, Open Sans" font-size="16" font-weight="normal" fill="#FFFFFF">
                <tspan x="1487" y="55">Resources</tspan>
            </text>
            <text id="Blog" font-family="OpenSans, Open Sans" font-size="16" font-weight="normal" fill="#FFFFFF">
                <tspan x="1599.5" y="55">Blog</tspan>
            </text>
            <text id="About" font-family="OpenSans, Open Sans" font-size="16" font-weight="normal" fill="#FFFFFF">
                <tspan x="1668" y="55">About</tspan>
            </text>
            <text id="Contact-Us" font-family="OpenSans, Open Sans" font-size="16" font-weight="normal" fill="#FFFFFF">
                <tspan x="1753" y="55">Contact Us</tspan>
            </text>
        </g>
    </g>
</svg>